<svg preserveAspectRatio="none" overflow="visible" style="display: block;" width="43" height="43" viewBox="0 0 43 43" fill="none" xmlns="http://www.w3.org/2000/svg">
<g id="Group 2719">
<circle id="Ellipse 47" cx="21.5" cy="21.5" r="21.5" fill="#F8F8F8"/>
<path id="Union" d="M11.691 18.4902L13.731 18.4912L20.2135 18.4922H27.2525L29.5465 18.4912C29.9774 18.4911 30.5083 18.4751 30.9264 18.5068C32.1531 18.6 33.3268 19.2038 34.1265 20.1338C34.9436 21.0904 35.3468 22.3328 35.2476 23.5869C35.1617 24.8137 34.5859 25.955 33.65 26.7529C32.9907 27.3195 32.0744 27.7777 31.2086 27.8711C30.6839 27.9274 29.9316 27.9423 29.4098 27.9014C29.3466 28.0814 29.2773 28.2198 29.1949 28.3906C29.0367 28.7222 28.7603 29.196 28.5582 29.5C27.0756 31.7283 24.7687 33.277 22.1451 33.8066C19.5271 34.3248 16.8103 33.7862 14.5885 32.3076C12.3754 30.8349 10.8338 28.5474 10.2994 25.9433C10.2113 25.5025 10.1524 25.056 10.1226 24.6074C10.1018 24.2412 10.1108 23.8105 10.1109 23.4394L10.1119 21.5586L10.109 19.9795C10.1086 19.6697 10.1035 19.3602 10.1197 19.0508C10.139 18.6838 10.3215 18.5538 10.6568 18.4941C10.9149 18.4745 11.4179 18.49 11.691 18.4902ZM30.2281 21.1543C30.2524 22.5278 30.2324 23.9024 30.1676 25.2744C30.9881 25.2266 31.2434 25.2621 31.9273 24.6953C32.1937 24.4282 32.3688 24.1787 32.482 23.8154C32.8634 22.5903 32.0114 21.2548 30.7115 21.1621C30.5514 21.1506 30.3878 21.1541 30.2281 21.1543ZM26.1851 9.00292C26.4598 9.00305 27.3144 8.97645 27.5103 9.06054C27.5994 9.15417 27.6042 9.278 27.6099 9.40331C27.6858 11.2074 27.038 12.967 25.8101 14.291C24.6102 15.5926 22.8808 16.4641 21.1031 16.542C20.0767 16.59 18.8816 16.5629 17.8424 16.5635H16.4068C16.1411 16.5634 15.8677 16.5713 15.6031 16.5566C15.3015 16.5303 15.1565 16.5142 15.1529 16.1709C15.1319 14.1387 15.8673 12.29 17.3512 10.8867C18.5286 9.77329 20.1085 9.08322 21.731 9.01268C22.0103 8.99611 22.3916 9.00527 22.6764 9.00487L24.3717 9.0039L26.1851 9.00292Z" fill="#155E35"/>
</g>
</svg>
